<svg xmlns="http://www.w3.org/2000/svg" width="60" height="16" viewBox="0 0 60 16">
  <g id="Group_14463" data-name="Group 14463" transform="translate(18147 -5537)">
    <rect id="Rectangle_5830" data-name="Rectangle 5830" width="60" height="16" rx="8" transform="translate(-18147 5537)" fill="#f5f5f5"/>
    <g id="Group_13999" data-name="Group 13999" transform="translate(-18651.316 5173.684)">
      <path id="Path_21020" data-name="Path 21020" d="M8,0A8,8,0,1,1,0,8,8,8,0,0,1,8,0Z" transform="translate(504.316 363.316)" fill="#621dee"/>
      <g id="noun-star-5532080" transform="translate(507.744 366.745)">
        <path id="Path_21017" data-name="Path 21017" d="M135.035,60.324l-2.747-.981-.324-.324-.981-2.747a.324.324,0,0,0-.61,0l-.981,2.747-.324.324-2.747.981a.324.324,0,0,0,0,.61l2.747.981.324.324.981,2.747a.324.324,0,0,0,.61,0l.981-2.747.324-.324,2.747-.981a.324.324,0,0,0,0-.61Zm-4.357,4.159Z" transform="translate(-126.107 -56.058)" fill="#fff"/>
      </g>
    </g>
    <path id="Path_21023" data-name="Path 21023" d="M2.88-.678A4.626,4.626,0,0,1,1.52-.87,3.342,3.342,0,0,1,.46-1.392l.344-.9a3.449,3.449,0,0,0,.949.482,3.591,3.591,0,0,0,1.126.17A1.719,1.719,0,0,0,3.9-1.879a.73.73,0,0,0,.318-.612.592.592,0,0,0-.225-.491,1.941,1.941,0,0,0-.773-.295l-.971-.205Q.584-3.839.584-5.2A1.734,1.734,0,0,1,.893-6.231a2.013,2.013,0,0,1,.857-.679,3.108,3.108,0,0,1,1.263-.241A3.631,3.631,0,0,1,4.2-6.959a2.547,2.547,0,0,1,.927.54l-.344.857A2.656,2.656,0,0,0,3-6.187a1.556,1.556,0,0,0-.954.259.81.81,0,0,0-.344.679.659.659,0,0,0,.212.513,1.577,1.577,0,0,0,.724.3l.963.205a2.712,2.712,0,0,1,1.3.589,1.4,1.4,0,0,1,.428,1.071,1.684,1.684,0,0,1-.3.991,1.944,1.944,0,0,1-.852.665A3.29,3.29,0,0,1,2.88-.678Zm5.7,0A1.515,1.515,0,0,1,6.863-2.392v-1.9h-.83v-.839h.83v-1.3h1.1v1.3H9.274v.839H7.967v1.839a.96.96,0,0,0,.185.643.755.755,0,0,0,.6.214,1.115,1.115,0,0,0,.256-.031L9.283-1.7l.168.821a1.471,1.471,0,0,1-.4.143A2.191,2.191,0,0,1,8.576-.678ZM10.89.84l.795-1.786L9.892-5.133h1.175l1.21,3.054,1.236-3.054h1.113L12.03.84Zm6.2-1.518A1.421,1.421,0,0,1,15.955-1.1a1.856,1.856,0,0,1-.367-1.246V-7.062h1.1V-2.4q0,.8.671.8.1,0,.194-.009a.931.931,0,0,0,.185-.036l-.018.884A2.586,2.586,0,0,1,17.09-.678Zm1.687-5.393V-7.16h1.236v1.089Zm.071,5.3V-5.133h1.1V-.767Zm2.552,0V-1.49l2.226-2.8H21.4v-.839h3.427v.723L22.6-1.607h2.323v.839Zm6.809.089a2.7,2.7,0,0,1-1.263-.277,1.956,1.956,0,0,1-.817-.786,2.414,2.414,0,0,1-.287-1.205,2.437,2.437,0,0,1,.278-1.187,2.057,2.057,0,0,1,.768-.8,2.151,2.151,0,0,1,1.117-.29,1.863,1.863,0,0,1,1.453.589,2.3,2.3,0,0,1,.534,1.607v.33H26.9a1.181,1.181,0,0,0,1.325,1.17,2.447,2.447,0,0,0,.724-.112,1.982,1.982,0,0,0,.662-.353l.309.75a2.3,2.3,0,0,1-.777.411A3.02,3.02,0,0,1,28.209-.678ZM28.05-4.464a1.057,1.057,0,0,0-.786.3,1.357,1.357,0,0,0-.362.821h2.173a1.346,1.346,0,0,0-.3-.835A.929.929,0,0,0,28.05-4.464ZM32.969-.678a1.79,1.79,0,0,1-.994-.277,1.831,1.831,0,0,1-.667-.79,2.848,2.848,0,0,1-.238-1.21,2.811,2.811,0,0,1,.238-1.21,1.84,1.84,0,0,1,.667-.781,1.79,1.79,0,0,1,.994-.277,1.685,1.685,0,0,1,.83.205,1.372,1.372,0,0,1,.556.545V-7.062h1.1V-.767H34.383V-1.49a1.33,1.33,0,0,1-.556.594A1.685,1.685,0,0,1,32.969-.678Zm.309-.848a.982.982,0,0,0,.795-.362,1.636,1.636,0,0,0,.3-1.067,1.614,1.614,0,0,0-.3-1.067.992.992,0,0,0-.795-.353.992.992,0,0,0-.795.353,1.614,1.614,0,0,0-.3,1.067,1.636,1.636,0,0,0,.3,1.067A.982.982,0,0,0,33.279-1.526Z" transform="translate(-18127.461 5548.66)" fill="#231f20"/>
  </g>
</svg>