<svg xmlns="http://www.w3.org/2000/svg" width="26" height="26" viewBox="0 0 26 26">
    <g data-name="Group 7992">
        <path data-name="Path 6005" d="M15.145 12.354a3 3 0 1 0-3-3 3 3 0 0 0 3 3zm0-4a1 1 0 1 1-1 1 1 1 0 0 1 1-1z"/>
        <path data-name="Path 6006" d="M20.255 4.289H5.496A1.476 1.476 0 0 0 4.02 5.765v14.76a1.476 1.476 0 0 0 1.476 1.476h14.76a1.476 1.476 0 0 0 1.476-1.476V5.765a1.476 1.476 0 0 0-1.477-1.476zm0 16.235H5.496v-4.427l3.69-3.69 4.125 4.125a1.476 1.476 0 0 0 2.081 0l1.173-1.173 3.69 3.69zm0-3.564-2.649-2.649a1.476 1.476 0 0 0-2.081 0l-1.173 1.178-4.126-4.13a1.476 1.476 0 0 0-2.081 0l-2.649 2.649V5.765h14.76z"/>
        <path data-name="&lt;Transparent Rectangle&gt;" style="fill:none" d="M0 0h26v26H0z"/>
    </g>
</svg>
