<svg xmlns="http://www.w3.org/2000/svg" width="19" height="19" viewBox="0 0 19 19">
    <path data-name="Path 12972" d="M7.125 9.5A2.375 2.375 0 1 0 9.5 7.125 2.375 2.375 0 0 0 7.125 9.5zm3.563 0a1.188 1.188 0 1 1-1.187-1.187A1.187 1.187 0 0 1 10.688 9.5z"/>
    <path data-name="Path 12973" d="m9.5 16.133-3.325-3.32-.831.843L9.5 17.812l4.156-4.156-.837-.837z"/>
    <path data-name="Path 12974" d="m9.5 2.867 3.313 3.307.843-.831L9.5 1.187 5.344 5.343l.837.837z"/>
    <path data-name="&lt;Transparent Rectangle&gt;" style="fill:none" d="M0 0h19v19H0z"/>
</svg>
