<svg xmlns="http://www.w3.org/2000/svg" width="23.344" height="13.969" viewBox="0 0 23.344 13.969">
    <path data-name="Path 13014" d="M19.918 0H8.325a2.339 2.339 0 0 0-2.3 2.334v.941L2.335.903A1.432 1.432 0 0 0 .791.828 1.537 1.537 0 0 0 0 2.184v9.564a1.537 1.537 0 0 0 .791 1.356 1.511 1.511 0 0 0 1.544-.038l3.69-2.373v.941a2.314 2.314 0 0 0 2.3 2.336h11.6a3.48 3.48 0 0 0 3.426-3.5V3.504a3.48 3.48 0 0 0-3.426-3.5zM6.025 8.886l-4.518 2.9V2.147l4.518 2.9zm15.814 1.544a1.97 1.97 0 0 1-1.92 2H8.325a.829.829 0 0 1-.791-.828V2.339a.8.8 0 0 1 .791-.828h11.6a1.97 1.97 0 0 1 1.92 2z"/>
</svg>
