<svg xmlns="http://www.w3.org/2000/svg" width="14.632" height="16.25" viewBox="0 0 14.632 16.25">
    <path data-name="Path 13017" d="M164.636 217.079v7.452a1.484 1.484 0 0 0 1.5 1.477h11.384a1.5 1.5 0 0 0 1.5-1.477v-7.452a1.484 1.484 0 0 0-1.5-1.477h-3.041v1.086h3.041a.408.408 0 0 1 .413.391v7.452a.4.4 0 0 1-.413.391h-11.385a.408.408 0 0 1-.413-.391v-7.452a.4.4 0 0 1 .413-.391h2.607V215.6h-2.607a1.5 1.5 0 0 0-1.5 1.477z" transform="translate(-164.511 -209.883)" style="fill:#034ea2;stroke:#034ea2;stroke-width:.25px"/>
    <path data-name="Path 13018" d="M255.235 86.9v-9.535l2.325 1.76.652-.869-2.844-2.148-.349-.264s-.005.005-.022 0a.3.3 0 0 1-.043-.022l-.043-.022-.044-.022a.22.22 0 0 0-.065-.022h-.043a.556.556 0 0 0-.2 0h-.043c-.022 0-.044.022-.065.022s-.022 0-.044.022a.076.076 0 0 0-.043.022c-.022 0-.022.022-.044.022 0 0 .766-.608-.022 0l-3.127 2.412.651.891 2.325-1.782V86.9z" transform="translate(-247.484 -75.448)" style="fill:#034ea2;stroke:#034ea2;stroke-width:.25px"/>
</svg>
