<svg data-name="link (1)" xmlns="http://www.w3.org/2000/svg" width="23" height="23" viewBox="0 0 23 23">
    <path data-name="Path 12963" d="M21.22 4.905a4.353 4.353 0 0 0-6.167 0l1.03 1.03a2.909 2.909 0 0 1 4.114 4.114l-5.8 5.8a2.906 2.906 0 0 1-4.113-4.103l1.023-1.03-1.023-1.03-1.03 1.03a4.358 4.358 0 0 0 6.181 6.145l5.8-5.8a4.353 4.353 0 0 0-.015-6.156z"/>
    <path data-name="Path 12964" d="M3.04 18.006a2.9 2.9 0 0 1 0-4.114l5.8-5.8a2.9 2.9 0 0 1 4.114 0 2.858 2.858 0 0 1 .827 2.068 2.9 2.9 0 0 1-.849 2.068l-1.538 1.56 1.03 1.03 1.538-1.538a4.366 4.366 0 0 0-6.17-6.178l-5.8 5.8a4.321 4.321 0 0 0 3.091 7.407 4.4 4.4 0 0 0 3.101-1.273l-1.03-1.03a2.9 2.9 0 0 1-4.114 0z"/>
    <path data-name="&lt;Transparent Rectangle&gt;" style="fill:none" d="M0 0h23v23H0z"/>
</svg>
