<svg xmlns="http://www.w3.org/2000/svg" width="24.527" height="25.091" viewBox="0 0 24.527 25.091">
    <path data-name="Path 13021" d="M140.5 41.562h-22.9a.566.566 0 0 0-.564.564v23.463a.566.566 0 0 0 .564.564h22.9a.566.566 0 0 0 .564-.564V42.126a.566.566 0 0 0-.564-.564zm-16.136 11.427v12.036h-6.2V52.9h6.21a.485.485 0 0 0-.006.09zm8.235 0v12.036h-7.107V52.989c0-.028-.006-.034-.011-.09h7.129c-.006.056-.011.062-.011.09zm7.332 12.036h-6.2V52.989a.486.486 0 0 0-.006-.09h6.21zm0-13.254H118.16V42.69h21.771z" transform="translate(-116.782 -41.312)" style="fill:#323232;stroke:#2c2c2c;stroke-width:.5px"/>
</svg>
