<svg xmlns="http://www.w3.org/2000/svg" width="23" height="23" viewBox="0 0 23 23">
    <path data-name="Path 12962" d="M20.473 3H4.456A1.456 1.456 0 0 0 3 4.456v16.017a1.456 1.456 0 0 0 1.456 1.457h16.017a1.456 1.456 0 0 0 1.456-1.456V4.456A1.456 1.456 0 0 0 20.473 3zm0 1.456v2.912H4.456V4.456zm-7.28 4.368h7.281v5.1h-7.281zm-1.456 5.1H4.456v-5.1h7.281zm-7.281 1.453h7.281v5.1H4.456zm8.737 5.1v-5.1h7.281v5.1z" transform="translate(-.816 -.816)" style="fill:#000000"/>
    <path data-name="&lt;Transparent Rectangle&gt;" style="fill:none" d="M0 0h23v23H0z"/>
</svg>
